<svg height="310pt" preserveAspectRatio="xMidYMid meet" viewBox="0 0 310 310" width="310pt" xmlns="http://www.w3.org/2000/svg"><g transform="translate(76 76)"><path d="m51.2 119.4c-8.4-9.9-13.9-24.7-14.2-41.2 0-.1 0-3.6 0-3.6.3-16.5 5.8-31.3 14.2-41.3 11-14.2 27.3-23.2 45.5-23.2 11.2 0 21.6 3.4 30.6 9.3-13.4-12-31.2-19.3-50.6-19.4-.1 0-.2 0-.3 0-42.2 0-76.4 34.2-76.4 76.4 0 41 32.3 74.4 72.8 76.3 1.2 0 2.4.1 3.6.1 19.5 0 37.4-7.4 50.9-19.5-9 6-19.4 9.4-30.6 9.4-18.2 0-34.5-9-45.5-23.3z"/><path d="m51.2 33.3c7.1-8.2 16.1-13.2 26-13.2 22.2 0 40.3 25.2 40.3 56.3s-18.1 56.3-40.3 56.3c-9.9 0-18.9-5-26-13.3 11 14.3 27.3 23.3 45.5 23.3 11.2 0 21.6-3.4 30.6-9.4 15.6-14 25.5-34.3 25.5-56.9s-9.9-43-25.5-57c-9-5.9-19.4-9.3-30.6-9.3-18.2 0-34.5 9-45.5 23.2z"/></g></svg>