<svg width="24" height="24" viewBox="0 0 24 24" fill="none" xmlns="http://www.w3.org/2000/svg">
<path d="M8.12195 19H7C5.89543 19 5 18.1046 5 17V10.8828C5 10.2257 5.32284 9.61042 5.86362 9.23703L10.8636 5.78464C11.5476 5.31237 12.4524 5.31237 13.1364 5.78464L18.1364 9.23703C18.6772 9.61042 19 10.2257 19 10.8828V17C19 18.1046 18.1046 19 17 19H15.878C14.7735 19 13.878 18.1046 13.878 17V16.0447C13.878 15.0075 13.0372 14.1667 12 14.1667C10.9628 14.1667 10.122 15.0075 10.122 16.0447V17C10.122 18.1046 9.22652 19 8.12195 19Z" stroke="#5021FF" stroke-width="1.5"/>
</svg>
