<svg width="24" height="24" viewBox="0 0 24 24" fill="none" xmlns="http://www.w3.org/2000/svg">
<path d="M18.0215 9.56464V7.5C18.0215 6.67157 17.3499 6 16.5215 6H5.5C4.67157 6 4 6.67157 4 7.5V13.7443C4 14.5727 4.67157 15.2443 5.5 15.2443H11.0966M13.6719 15.2443H11.0966M11.0966 15.2443V18.4762M8.75013 18.4762H13.6719M15.9939 16.9762V13.3947C15.9939 12.5663 16.6654 11.8947 17.4939 11.8947H18.5C19.3284 11.8947 20 12.5663 20 13.3947V16.9762C20 17.8047 19.3284 18.4762 18.5 18.4762H17.4939C16.6654 18.4762 15.9939 17.8047 15.9939 16.9762Z" stroke="#5021FF" stroke-width="1.5" stroke-linecap="round"/>
</svg>
