<svg width="24" height="24" viewBox="0 0 24 24" fill="none" xmlns="http://www.w3.org/2000/svg">
<path fill-rule="evenodd" clip-rule="evenodd" d="M12.3167 5.04254C12.0021 4.98575 11.6953 4.98575 11.3806 5.04254C9.9863 5.29678 7.55165 6.34605 6.82077 6.67241C6.31365 6.89869 6 7.36479 6 7.88769V12.8153C6 14.1072 6.82077 15.8761 8.77548 17.3252L10.0758 18.1329L11.2176 18.7872C11.4609 18.9297 11.7394 19 12.0139 19C12.2787 19 12.5396 18.9342 12.7565 18.8053L14.0965 18.0652L15.2646 17.3252C17.166 15.793 18 14.1884 18 12.8153V7.88769C18 7.36479 17.4116 6.90552 16.9055 6.68013C16.1737 6.35287 13.711 5.29678 12.3167 5.04254Z" stroke="#5021FF" stroke-width="1.5"/>
<path d="M15.0595 10.2838L11.6077 13.6405C11.3827 13.8593 11.0178 13.8585 10.7938 13.6389L9.03603 11.9154" stroke="#5021FF" stroke-width="1.5" stroke-linecap="round" stroke-linejoin="round"/>
</svg>
